<svg width="49" height="47" viewBox="0 0 49 47" fill="none" xmlns="http://www.w3.org/2000/svg">
<g filter="url(#filter0_d_185_1544)">
<path d="M17.667 19.0833H22.2503V13.5833H17.667V19.0833ZM17.667 25.5H22.2503V20H17.667V25.5ZM23.167 25.5H27.7503V20H23.167V25.5ZM28.667 25.5H33.2503V20H28.667V25.5ZM23.167 19.0833H27.7503V13.5833H23.167V19.0833ZM28.667 13.5833V19.0833H33.2503V13.5833H28.667Z" fill="#84818A"/>
<path d="M4.5 4C4.5 2.067 6.067 0.5 8 0.5H44.5V38.5H8C6.067 38.5 4.5 36.933 4.5 35V4Z" stroke="#EBEAED" shape-rendering="crispEdges"/>
</g>
<defs>
<filter id="filter0_d_185_1544" x="0" y="0" width="49" height="47" filterUnits="userSpaceOnUse" color-interpolation-filters="sRGB">
<feFlood flood-opacity="0" result="BackgroundImageFix"/>
<feColorMatrix in="SourceAlpha" type="matrix" values="0 0 0 0 0 0 0 0 0 0 0 0 0 0 0 0 0 0 127 0" result="hardAlpha"/>
<feOffset dy="4"/>
<feGaussianBlur stdDeviation="2"/>
<feComposite in2="hardAlpha" operator="out"/>
<feColorMatrix type="matrix" values="0 0 0 0 0 0 0 0 0 0 0 0 0 0 0 0 0 0 0.25 0"/>
<feBlend mode="normal" in2="BackgroundImageFix" result="effect1_dropShadow_185_1544"/>
<feBlend mode="normal" in="SourceGraphic" in2="effect1_dropShadow_185_1544" result="shape"/>
</filter>
</defs>
</svg>
