<svg width="18" height="18" viewBox="0 0 18 18" fill="none" xmlns="http://www.w3.org/2000/svg">
<g clip-path="url(#clip0_300_1787)">
<path d="M5.39083 15.6499L15.4378 5.60299C15.4378 5.60299 15.4378 5.60298 15.4378 5.60298C15.5596 5.48109 15.6281 5.31579 15.6281 5.14344C15.6281 4.97109 15.5596 4.80579 15.4378 4.6839L15.4378 4.68389M5.39083 15.6499L15.5085 4.61319L15.4378 4.68389M5.39083 15.6499H2.35M5.39083 15.6499H2.35M15.4378 4.68389L13.3161 2.56216M15.4378 4.68389L13.3161 2.56216M13.3161 2.56216C13.316 2.56216 13.316 2.56215 13.316 2.56215C13.1941 2.4403 13.0289 2.37185 12.8565 2.37185C12.6841 2.37185 12.5189 2.4403 12.397 2.56215C12.397 2.56215 12.397 2.56216 12.397 2.56216L2.35 12.6091V15.6499M13.3161 2.56216L2.35 15.6499M11.8667 7.33515L11.9374 7.26444L11.8667 7.19373L10.8062 6.13323L10.7355 6.06252L10.6648 6.13323L3.67929 13.1187L3.65 13.148V13.1894V14.2499V14.3499H3.75H4.8105H4.85192L4.88121 14.3207L11.8667 7.33515ZM12.7858 6.27465L12.8565 6.34536L12.9272 6.27465L13.9877 5.21415L14.0584 5.14344L13.9877 5.07273L12.9272 4.01223L12.8565 3.94152L12.7858 4.01223L11.7253 5.07273L11.6546 5.14344L11.7253 5.21415L12.7858 6.27465Z" fill="black" stroke="white" stroke-width="0.2"/>
</g>
<defs>
<clipPath id="clip0_300_1787">
<rect width="18" height="18" fill="white"/>
</clipPath>
</defs>
</svg>
