<svg width="18" height="19" viewBox="0 0 18 19" fill="none" xmlns="http://www.w3.org/2000/svg">
<path d="M10.897 7.60244L7.10195 11.3974C6.61445 10.9099 6.31445 10.2424 6.31445 9.49994C6.31445 8.01494 7.51445 6.81494 8.99945 6.81494C9.74195 6.81494 10.4095 7.11494 10.897 7.60244Z" stroke="#87898E" stroke-width="1.2" stroke-linecap="round" stroke-linejoin="round"/>
<path d="M13.3639 4.82736C12.0514 3.83736 10.5514 3.29736 8.99891 3.29736C6.35141 3.29736 3.88391 4.85736 2.16641 7.55736C1.49141 8.61486 1.49141 10.3924 2.16641 11.4499C2.75891 12.3799 3.44891 13.1824 4.19891 13.8274" stroke="#87898E" stroke-width="1.2" stroke-linecap="round" stroke-linejoin="round"/>
<path d="M6.31445 15.1475C7.16945 15.5075 8.07695 15.7025 8.99945 15.7025C11.647 15.7025 14.1145 14.1425 15.832 11.4425C16.507 10.385 16.507 8.60751 15.832 7.55001C15.5845 7.16001 15.3145 6.79251 15.037 6.44751" stroke="#87898E" stroke-width="1.2" stroke-linecap="round" stroke-linejoin="round"/>
<path d="M11.6326 10.0249C11.4376 11.0824 10.5751 11.9449 9.51758 12.1399" stroke="#87898E" stroke-width="1.2" stroke-linecap="round" stroke-linejoin="round"/>
<path d="M7.1025 11.3975L1.5 17" stroke="#87898E" stroke-width="1.2" stroke-linecap="round" stroke-linejoin="round"/>
<path d="M16.5009 2L10.8984 7.6025" stroke="#87898E" stroke-width="1.2" stroke-linecap="round" stroke-linejoin="round"/>
</svg>
