<svg width="21" height="21" viewBox="0 0 21 21" fill="none" xmlns="http://www.w3.org/2000/svg">
<path d="M15.6934 2.61824C16.607 3.02888 17.3881 3.68833 17.9464 4.52265C18.5359 5.40364 18.8504 6.43991 18.85 7.49994V7.50005C18.8504 8.83494 18.3517 10.1218 17.4518 11.1077C16.5889 12.0531 15.4169 12.6563 14.15 12.8112V11.0927C14.8734 10.9626 15.5418 10.6168 16.0666 10.0993C16.6224 9.55118 16.9879 8.83935 17.1093 8.06827C17.2308 7.2972 17.1018 6.50749 16.7414 5.8151C16.4005 5.16001 15.8693 4.62468 15.2191 4.27854L15.6934 2.61824ZM0.151431 20.85C0.190138 18.8223 1.01244 16.886 2.44921 15.4492C3.92137 13.9771 5.91805 13.15 8 13.15C10.0819 13.15 12.0786 13.9771 13.5508 15.4492C14.9876 16.886 15.8099 18.8223 15.8486 20.85H14.1482C14.1097 19.2733 13.4667 17.7692 12.3487 16.6513C11.1954 15.4979 9.63108 14.85 8 14.85C6.36892 14.85 4.80464 15.4979 3.65129 16.6513C2.53335 17.7692 1.89025 19.2733 1.85183 20.85H0.151431ZM8 11.85C4.76784 11.85 2.15 9.23216 2.15 6C2.15 2.76784 4.76784 0.15 8 0.15C11.2322 0.15 13.85 2.76784 13.85 6C13.85 9.23216 11.2322 11.85 8 11.85ZM8 10.15C10.2928 10.15 12.15 8.29284 12.15 6C12.15 3.70716 10.2928 1.85 8 1.85C5.70716 1.85 3.85 3.70716 3.85 6C3.85 8.29284 5.70716 10.15 8 10.15ZM15.6605 15.4534L16.3579 13.9023C17.678 14.5273 18.7987 15.5087 19.5926 16.7371C20.3864 17.9653 20.8208 19.3899 20.8486 20.85H19.1482C19.1208 19.7174 18.781 18.6133 18.1651 17.6602C17.5491 16.707 16.6819 15.9437 15.6605 15.4534Z" fill="white" stroke="url(#paint0_linear_416_1777)" stroke-width="0.3"/>
<defs>
<linearGradient id="paint0_linear_416_1777" x1="10.5" y1="0" x2="10.5" y2="21" gradientUnits="userSpaceOnUse">
<stop stop-color="#8639B5"/>
<stop offset="1" stop-color="#092056"/>
</linearGradient>
</defs>
</svg>
