<svg width="41" height="39" viewBox="0 0 41 39" fill="none" xmlns="http://www.w3.org/2000/svg">
<path d="M0.5 0.5H37C38.933 0.5 40.5 2.067 40.5 4V35C40.5 36.933 38.933 38.5 37 38.5H0.5V0.5Z" fill="#FBFAFC"/>
<path d="M12.75 20.9167H14.5833V19.0834H12.75V20.9167ZM12.75 24.5834H14.5833V22.75H12.75V24.5834ZM12.75 17.25H14.5833V15.4167H12.75V17.25ZM16.4167 20.9167H29.25V19.0834H16.4167V20.9167ZM16.4167 24.5834H29.25V22.75H16.4167V24.5834ZM16.4167 15.4167V17.25H29.25V15.4167H16.4167Z" fill="#8639B5"/>
<path d="M0.5 0.5H37C38.933 0.5 40.5 2.067 40.5 4V35C40.5 36.933 38.933 38.5 37 38.5H0.5V0.5Z" stroke="#EBEAED"/>
</svg>
