<svg width="18" height="18" viewBox="0 0 18 18" fill="none" xmlns="http://www.w3.org/2000/svg">
<g clip-path="url(#clip0_300_1787)">
<path d="M11.8667 7.33515L11.9374 7.26444L11.8667 7.19373L10.8062 6.13323L10.7355 6.06252L10.6648 6.13323L3.67929 13.1187L3.65 13.148V13.1894V14.2499V14.3499H3.75H4.8105H4.85192L4.88121 14.3207L11.8667 7.33515ZM12.7858 6.27465L12.8565 6.34536L12.9272 6.27465L13.9877 5.21415L14.0584 5.14344L13.9877 5.07273L12.9272 4.01223L12.8565 3.94152L12.7858 4.01223L11.7253 5.07273L11.6546 5.14344L11.7253 5.21415L12.7858 6.27465ZM15.4378 5.60299L5.39083 15.6499H2.35V12.6091L12.3969 2.56216C12.5188 2.44031 12.6841 2.37185 12.8565 2.37185C13.0289 2.37185 13.1942 2.44031 13.3161 2.56216L15.4378 4.68389C15.4378 4.68389 15.4378 4.6839 15.4378 4.6839C15.5596 4.80579 15.6281 4.97109 15.6281 5.14344C15.6281 5.31579 15.5596 5.48109 15.4378 5.60298C15.4378 5.60298 15.4378 5.60299 15.4378 5.60299Z" fill="black" stroke="white" stroke-width="0.2"/>
</g>
<defs>
<clipPath id="clip0_300_1787">
<rect width="18" height="18" fill="white"/>
</clipPath>
</defs>
</svg>
