<svg width="512" height="410" viewBox="0 0 512 410" fill="none" xmlns="http://www.w3.org/2000/svg">
<path fill-rule="evenodd" clip-rule="evenodd" d="M423.936 133.25C431.853 133.25 438.272 139.675 438.272 147.6C438.272 155.525 431.853 161.95 423.936 161.95H342.016C349.933 161.95 356.352 168.375 356.352 176.3C356.352 184.225 349.933 190.65 342.016 190.65H387.072C394.989 190.65 401.408 197.075 401.408 205C401.408 212.925 394.989 219.35 387.072 219.35H366.236C356.253 219.35 348.16 225.775 348.16 233.7C348.16 238.984 352.256 243.767 360.448 248.05C368.365 248.05 374.784 254.475 374.784 262.4C374.784 270.325 368.365 276.75 360.448 276.75H190.464C182.546 276.75 176.128 270.325 176.128 262.4C176.128 254.475 182.546 248.05 190.464 248.05H110.592C102.674 248.05 96.2559 241.625 96.2559 233.7C96.2559 225.775 102.674 219.35 110.592 219.35H192.512C200.429 219.35 206.848 212.925 206.848 205C206.848 197.075 200.429 190.65 192.512 190.65H141.312C133.394 190.65 126.976 184.225 126.976 176.3C126.976 168.375 133.394 161.95 141.312 161.95H223.232C215.314 161.95 208.896 155.525 208.896 147.6C208.896 139.675 215.314 133.25 223.232 133.25H423.936ZM423.936 190.65C431.853 190.65 438.272 197.075 438.272 205C438.272 212.925 431.853 219.35 423.936 219.35C416.018 219.35 409.6 212.925 409.6 205C409.6 197.075 416.018 190.65 423.936 190.65Z" fill="#E0E0E0"/>
<path d="M315.975 131.03C315.881 130.346 315.251 129.868 314.567 129.962C313.883 130.055 313.404 130.686 313.498 131.37L315.975 131.03ZM333.773 270.265L335.013 270.113C335.013 270.107 335.012 270.101 335.011 270.095L333.773 270.265ZM335.483 284.217L336.724 284.065L335.483 284.217ZM328.348 293.355L328.501 294.596L328.348 293.355ZM208.403 308.108L208.555 309.349L208.403 308.108ZM199.273 300.97L200.514 300.818L199.273 300.97ZM180.824 150.457L182.065 150.305L180.824 150.457ZM184.391 145.888L184.239 144.647L184.391 145.888ZM184.434 145.883L184.573 147.125L184.434 145.883ZM194.524 146.007C195.21 145.93 195.704 145.311 195.627 144.625C195.55 143.939 194.932 143.445 194.246 143.522L194.524 146.007ZM202.29 142.606C201.604 142.683 201.11 143.302 201.187 143.988C201.264 144.674 201.882 145.168 202.568 145.091L202.29 142.606ZM211.963 144.035C212.649 143.958 213.142 143.339 213.066 142.653C212.989 141.967 212.37 141.474 211.684 141.551L211.963 144.035ZM313.498 131.37L332.534 270.435L335.011 270.095L315.975 131.03L313.498 131.37ZM332.532 270.418L334.242 284.369L336.724 284.065L335.013 270.113L332.532 270.418ZM334.242 284.369C334.709 288.18 332.001 291.647 328.196 292.115L328.501 294.596C333.678 293.959 337.358 289.243 336.724 284.065L334.242 284.369ZM328.196 292.115L208.25 306.867L208.555 309.349L328.501 294.596L328.196 292.115ZM208.25 306.867C204.445 307.335 200.981 304.628 200.514 300.818L198.032 301.122C198.667 306.301 203.378 309.985 208.555 309.349L208.25 306.867ZM200.514 300.818L182.065 150.305L179.583 150.609L198.032 301.122L200.514 300.818ZM182.065 150.305C181.873 148.742 182.984 147.32 184.544 147.128L184.239 144.647C181.307 145.008 179.224 147.678 179.583 150.609L182.065 150.305ZM184.544 147.128C184.553 147.127 184.563 147.126 184.573 147.125L184.295 144.641C184.276 144.643 184.258 144.645 184.239 144.647L184.544 147.128ZM184.573 147.125L194.524 146.007L194.246 143.522L184.295 144.641L184.573 147.125ZM202.568 145.091L211.963 144.035L211.684 141.551L202.29 142.606L202.568 145.091Z" fill="#455A64"/>
<path fill-rule="evenodd" clip-rule="evenodd" d="M309.535 139.952L326.778 265.994L328.329 278.638C328.829 282.712 325.974 286.415 321.953 286.909L214.551 300.109C210.53 300.604 206.865 297.702 206.365 293.628L189.418 155.472C189.284 154.376 190.064 153.378 191.16 153.243L206.527 151.354" fill="#E0E0E0"/>
<path d="M219.714 106.5C219.714 104.981 220.945 103.75 222.464 103.75H321.691C322.42 103.75 323.12 104.04 323.635 104.556L353.625 134.556C354.14 135.071 354.43 135.771 354.43 136.5V270.7C354.43 272.219 353.199 273.45 351.68 273.45H222.464C220.945 273.45 219.714 272.219 219.714 270.7V106.5Z" stroke="#455A64" stroke-width="2.5"/>
<path d="M320.864 107.426V131.2C320.864 134.597 323.615 137.35 327.008 137.35H343.256" stroke="#455A64" stroke-width="2.5" stroke-linecap="round" stroke-linejoin="round"/>
<path d="M241.664 241.9H294.912M241.664 137.35H294.912H241.664ZM241.664 161.95H329.728H241.664ZM241.664 188.6H329.728H241.664ZM241.664 215.25H329.728H241.664Z" stroke="#CEC2C0" stroke-width="2.5" stroke-linecap="round" stroke-linejoin="round"/>
</svg>
