<svg width="14" height="13" viewBox="0 0 14 13" fill="none" xmlns="http://www.w3.org/2000/svg">
<path d="M7 0.199997C7.43492 0.199997 7.7875 0.552573 7.7875 0.987497V5.7125H12.5125C12.9474 5.7125 13.3 6.06507 13.3 6.5C13.3 6.93492 12.9474 7.2875 12.5125 7.2875H7.7875V12.0125C7.7875 12.4474 7.43492 12.8 7 12.8C6.56507 12.8 6.2125 12.4474 6.2125 12.0125V7.2875H1.4875C1.05257 7.2875 0.699997 6.93492 0.699997 6.5C0.699997 6.06507 1.05257 5.7125 1.4875 5.7125H6.2125V0.987497C6.2125 0.552573 6.56507 0.199997 7 0.199997Z" fill="white"/>
</svg>
