<svg width="131" height="14" viewBox="0 0 131 14" fill="none" xmlns="http://www.w3.org/2000/svg">
<path d="M6.448 2.68C5.84 2.68 5.29067 2.78667 4.8 3C4.30933 3.20267 3.89333 3.50667 3.552 3.912C3.21067 4.30667 2.94933 4.792 2.768 5.368C2.58667 5.93333 2.496 6.57333 2.496 7.288C2.496 8.22667 2.64 9.04267 2.928 9.736C3.22667 10.4293 3.664 10.9627 4.24 11.336C4.82667 11.7093 5.55733 11.896 6.432 11.896C6.93333 11.896 7.408 11.8533 7.856 11.768C8.304 11.6827 8.74133 11.576 9.168 11.448V12.696C8.74133 12.856 8.29867 12.9733 7.84 13.048C7.392 13.1227 6.85333 13.16 6.224 13.16C5.06133 13.16 4.09067 12.92 3.312 12.44C2.53333 11.96 1.94667 11.2773 1.552 10.392C1.168 9.50667 0.976 8.46667 0.976 7.272C0.976 6.408 1.09333 5.61867 1.328 4.904C1.57333 4.18933 1.92533 3.57067 2.384 3.048C2.85333 2.52533 3.42933 2.12533 4.112 1.848C4.79467 1.56 5.57867 1.416 6.464 1.416C7.05067 1.416 7.616 1.47467 8.16 1.592C8.704 1.70933 9.18933 1.87467 9.616 2.088L9.04 3.304C8.688 3.144 8.29333 3 7.856 2.872C7.42933 2.744 6.96 2.68 6.448 2.68ZM18.8774 4.424V13H17.4694V5.624H13.0374V13H11.6294V4.424H18.8774ZM23.1017 9.656C23.1017 9.752 23.0964 9.89067 23.0857 10.072C23.0857 10.2427 23.0804 10.4293 23.0697 10.632C23.0591 10.824 23.0484 11.0107 23.0377 11.192C23.0271 11.3627 23.0164 11.5013 23.0057 11.608L27.5978 4.424H29.3258V13H28.0138V7.944C28.0138 7.77333 28.0138 7.54933 28.0138 7.272C28.0244 6.99467 28.0351 6.72267 28.0458 6.456C28.0564 6.17867 28.0671 5.97067 28.0778 5.832L23.5177 13H21.7737V4.424H23.1017V9.656ZM35.655 13.16C34.8977 13.16 34.2203 13.0053 33.623 12.696C33.0363 12.3867 32.5723 11.9067 32.231 11.256C31.9003 10.6053 31.735 9.77333 31.735 8.76C31.735 7.704 31.911 6.84533 32.263 6.184C32.615 5.52267 33.0897 5.03733 33.687 4.728C34.295 4.41867 34.983 4.264 35.751 4.264C36.1883 4.264 36.6097 4.312 37.015 4.408C37.4203 4.49333 37.751 4.6 38.007 4.728L37.575 5.896C37.319 5.8 37.0203 5.70933 36.679 5.624C36.3377 5.53867 36.0177 5.496 35.719 5.496C35.143 5.496 34.6683 5.61867 34.295 5.864C33.9217 6.10933 33.6443 6.472 33.463 6.952C33.2817 7.432 33.191 8.02933 33.191 8.744C33.191 9.42667 33.2817 10.008 33.463 10.488C33.6443 10.968 33.9163 11.3307 34.279 11.576C34.6417 11.8213 35.095 11.944 35.639 11.944C36.1083 11.944 36.519 11.896 36.871 11.8C37.2337 11.704 37.5643 11.5867 37.863 11.448V12.696C37.575 12.8453 37.255 12.9573 36.903 13.032C36.5617 13.1173 36.1457 13.16 35.655 13.16ZM47.5185 8.696C47.5185 9.41067 47.4225 10.0453 47.2305 10.6C47.0492 11.144 46.7825 11.608 46.4305 11.992C46.0892 12.376 45.6678 12.6693 45.1665 12.872C44.6758 13.064 44.1265 13.16 43.5185 13.16C42.9532 13.16 42.4305 13.064 41.9505 12.872C41.4705 12.6693 41.0545 12.376 40.7025 11.992C40.3505 11.608 40.0732 11.144 39.8705 10.6C39.6785 10.0453 39.5825 9.41067 39.5825 8.696C39.5825 7.74667 39.7425 6.94667 40.0625 6.296C40.3825 5.63467 40.8412 5.13333 41.4385 4.792C42.0358 4.44 42.7452 4.264 43.5665 4.264C44.3452 4.264 45.0278 4.44 45.6145 4.792C46.2118 5.13333 46.6758 5.63467 47.0065 6.296C47.3478 6.94667 47.5185 7.74667 47.5185 8.696ZM41.0385 8.696C41.0385 9.368 41.1238 9.95467 41.2945 10.456C41.4758 10.9467 41.7532 11.3253 42.1265 11.592C42.4998 11.8587 42.9745 11.992 43.5505 11.992C44.1265 11.992 44.6012 11.8587 44.9745 11.592C45.3478 11.3253 45.6198 10.9467 45.7905 10.456C45.9718 9.95467 46.0625 9.368 46.0625 8.696C46.0625 8.01333 45.9718 7.432 45.7905 6.952C45.6092 6.472 45.3318 6.104 44.9585 5.848C44.5958 5.58133 44.1212 5.448 43.5345 5.448C42.6598 5.448 42.0252 5.736 41.6305 6.312C41.2358 6.888 41.0385 7.68267 41.0385 8.696ZM54.982 4.424H56.518L52.854 8.552L56.822 13H55.19L51.318 8.648V13H49.91V4.424H51.318V8.584L54.982 4.424ZM73.143 4.424L69.607 8.584L73.447 13H71.847L68.135 8.648V13H66.823V8.648L63.111 13H61.511L65.351 8.584L61.815 4.424H63.351L66.823 8.584V4.424H68.135V8.584L71.623 4.424H73.143ZM78.0145 4.264C78.7505 4.264 79.3798 4.424 79.9025 4.744C80.4358 5.064 80.8412 5.51733 81.1185 6.104C81.4065 6.68 81.5505 7.35733 81.5505 8.136V8.984H75.6785C75.6998 9.95467 75.9452 10.696 76.4145 11.208C76.8945 11.7093 77.5612 11.96 78.4145 11.96C78.9585 11.96 79.4385 11.912 79.8545 11.816C80.2812 11.7093 80.7185 11.56 81.1665 11.368V12.6C80.7292 12.792 80.2972 12.9307 79.8705 13.016C79.4438 13.112 78.9372 13.16 78.3505 13.16C77.5398 13.16 76.8198 12.9947 76.1905 12.664C75.5718 12.3333 75.0865 11.8427 74.7345 11.192C74.3932 10.5307 74.2225 9.72533 74.2225 8.776C74.2225 7.83733 74.3772 7.032 74.6865 6.36C75.0065 5.688 75.4492 5.17067 76.0145 4.808C76.5905 4.44533 77.2572 4.264 78.0145 4.264ZM77.9985 5.416C77.3265 5.416 76.7932 5.63467 76.3985 6.072C76.0145 6.49867 75.7852 7.096 75.7105 7.864H80.0785C80.0785 7.37333 80.0038 6.94667 79.8545 6.584C79.7052 6.22133 79.4758 5.93867 79.1665 5.736C78.8678 5.52267 78.4785 5.416 77.9985 5.416ZM90.4218 13H88.9978V5.592H86.4698C86.3631 6.94667 86.2298 8.104 86.0698 9.064C85.9098 10.0133 85.7071 10.7867 85.4618 11.384C85.2164 11.9813 84.9231 12.4187 84.5818 12.696C84.2404 12.9733 83.8404 13.112 83.3818 13.112C83.2431 13.112 83.1044 13.1013 82.9658 13.08C82.8378 13.0693 82.7311 13.0427 82.6458 13V11.944C82.7098 11.9653 82.7791 11.9813 82.8538 11.992C82.9284 12.0027 83.0031 12.008 83.0778 12.008C83.3124 12.008 83.5258 11.912 83.7178 11.72C83.9098 11.528 84.0804 11.2347 84.2298 10.84C84.3898 10.4453 84.5338 9.94933 84.6618 9.352C84.7898 8.744 84.9018 8.02933 84.9978 7.208C85.0938 6.38667 85.1791 5.45867 85.2538 4.424H90.4218V13ZM96.5517 4.28C97.5971 4.28 98.3704 4.50933 98.8717 4.968C99.3731 5.42667 99.6237 6.15733 99.6237 7.16V13H98.5997L98.3277 11.784H98.2637C98.0184 12.0933 97.7624 12.3547 97.4957 12.568C97.2397 12.7707 96.9411 12.92 96.5997 13.016C96.2691 13.112 95.8637 13.16 95.3837 13.16C94.8717 13.16 94.4077 13.0693 93.9917 12.888C93.5864 12.7067 93.2664 12.4293 93.0317 12.056C92.7971 11.672 92.6797 11.192 92.6797 10.616C92.6797 9.76267 93.0157 9.10667 93.6877 8.648C94.3597 8.17867 95.3944 7.92267 96.7917 7.88L98.2477 7.832V7.32C98.2477 6.60533 98.0931 6.10933 97.7837 5.832C97.4744 5.55467 97.0371 5.416 96.4717 5.416C96.0237 5.416 95.5971 5.48533 95.1917 5.624C94.7864 5.752 94.4077 5.90133 94.0557 6.072L93.6237 5.016C93.9971 4.81333 94.4397 4.64267 94.9517 4.504C95.4637 4.35467 95.9971 4.28 96.5517 4.28ZM96.9677 8.856C95.9011 8.89867 95.1597 9.06933 94.7437 9.368C94.3384 9.66667 94.1357 10.088 94.1357 10.632C94.1357 11.112 94.2797 11.464 94.5677 11.688C94.8664 11.912 95.2451 12.024 95.7037 12.024C96.4291 12.024 97.0317 11.8267 97.5117 11.432C97.9917 11.0267 98.2317 10.408 98.2317 9.576V8.808L96.9677 8.856ZM103.841 4.424V7.992H108.497V4.424H109.905V13H108.497V9.176H103.841V13H102.433V4.424H103.841ZM114.108 9.656C114.108 9.752 114.103 9.89067 114.092 10.072C114.092 10.2427 114.087 10.4293 114.076 10.632C114.065 10.824 114.055 11.0107 114.044 11.192C114.033 11.3627 114.023 11.5013 114.012 11.608L118.604 4.424H120.332V13H119.02V7.944C119.02 7.77333 119.02 7.54933 119.02 7.272C119.031 6.99467 119.041 6.72267 119.052 6.456C119.063 6.17867 119.073 5.97067 119.084 5.832L114.524 13H112.78V4.424H114.108V9.656ZM130.165 0.872C130.123 1.40533 129.989 1.85333 129.765 2.216C129.552 2.57867 129.232 2.85067 128.805 3.032C128.379 3.21333 127.824 3.304 127.141 3.304C126.448 3.304 125.888 3.21333 125.461 3.032C125.045 2.85067 124.741 2.584 124.549 2.232C124.357 1.86933 124.24 1.416 124.197 0.872H125.509C125.563 1.448 125.712 1.83733 125.957 2.04C126.213 2.232 126.619 2.328 127.173 2.328C127.664 2.328 128.048 2.22667 128.325 2.024C128.613 1.81067 128.784 1.42667 128.837 0.872H130.165ZM124.549 9.656C124.549 9.752 124.544 9.89067 124.533 10.072C124.533 10.2427 124.528 10.4293 124.517 10.632C124.507 10.824 124.496 11.0107 124.485 11.192C124.475 11.3627 124.464 11.5013 124.453 11.608L129.045 4.424H130.773V13H129.461V7.944C129.461 7.77333 129.461 7.54933 129.461 7.272C129.472 6.99467 129.483 6.72267 129.493 6.456C129.504 6.17867 129.515 5.97067 129.525 5.832L124.965 13H123.221V4.424H124.549V9.656Z" fill="white"/>
</svg>
