<svg width="28" height="22" viewBox="0 0 28 22" fill="none" xmlns="http://www.w3.org/2000/svg">
<path d="M24.4618 0.0224609H7.28773C7.28773 0.0224609 7.28773 1.75546 7.28773 2.02041H24.4618C25.0501 2.02041 25.494 2.64976 25.494 3.39899V15.8162L22.0052 11.8203C21.7539 11.5261 21.4385 11.2894 21.0816 11.127C20.7247 10.9647 20.3351 10.8808 19.9408 10.8813C19.5472 10.8796 19.1581 10.9619 18.8013 11.1225C18.4444 11.2831 18.1286 11.518 17.8764 11.8104L14.2121 16.076L10.4962 11.8403C10.243 11.549 9.92698 11.3149 9.57034 11.1544C9.2137 10.9939 8.82507 10.9109 8.43176 10.9113C8.03682 10.9133 7.64718 10.9994 7.29043 11.1634C6.93368 11.3274 6.61855 11.5653 6.36737 11.8603L2.70307 16.1859V6.64399H0.63869L0.638672 18.6733C0.638672 18.8132 0.638672 18.953 0.638672 19.1129C0.667285 19.3059 0.712164 19.4963 0.772858 19.6823C0.772858 19.7322 0.772858 19.7922 0.772858 19.8421L0.824468 19.962C0.895478 20.1418 0.981791 20.3155 1.08252 20.4814L1.20638 20.6713C1.29958 20.8052 1.40309 20.9321 1.51604 21.0509L1.67087 21.2007C1.8339 21.3499 2.01398 21.4806 2.20761 21.5903H2.23858C2.68766 21.8605 3.20647 22.0025 3.73526 21.9999H24.3792C24.83 21.9954 25.2739 21.8925 25.6779 21.6988C26.0818 21.505 26.4353 21.2255 26.712 20.881C26.9899 20.5479 27.2032 20.1689 27.3416 19.7622C27.4247 19.4888 27.4766 19.2074 27.4964 18.923C27.4964 18.8232 27.4964 18.7233 27.4964 18.6134V3.39899C27.5399 2.56564 27.248 1.74841 26.6822 1.11884C26.1164 0.489273 25.3206 0.096318 24.4618 0.0224609Z" fill="#8E8EA9"/>
</svg>
